<svg width="18" height="19" viewBox="0 0 18 19" fill="none" xmlns="http://www.w3.org/2000/svg">
<path d="M7.35104 14.7021C8.94742 14.7021 10.4195 14.1859 11.624 13.3255L16.1551 17.8566C16.3654 18.0669 16.6426 18.1721 16.9389 18.1721C17.5603 18.1721 18 17.6941 18 17.0823C18 16.7955 17.9044 16.5279 17.6941 16.3176L13.1917 11.8056C14.1381 10.5629 14.7021 9.0239 14.7021 7.35104C14.7021 3.30749 11.3946 0 7.35104 0C3.31705 0 0 3.29793 0 7.35104C0 11.3946 3.30749 14.7021 7.35104 14.7021ZM7.35104 13.1152C4.1965 13.1152 1.58683 10.5056 1.58683 7.35104C1.58683 4.1965 4.1965 1.58683 7.35104 1.58683C10.5056 1.58683 13.1152 4.1965 13.1152 7.35104C13.1152 10.5056 10.5056 13.1152 7.35104 13.1152Z" fill="white"/>
</svg>
