<svg width="97" height="21" viewBox="0 0 97 21" fill="none" xmlns="http://www.w3.org/2000/svg">
<path d="M21.4877 1.8L17.7177 20H14.9357L11.2177 5.518L7.47373 20H4.71773L0.895727 1.8H3.93773L6.30373 15.502L9.81373 1.8H12.5957L16.1057 15.45L18.4457 1.8H21.4877ZM34.4668 14.488H25.2108C25.3495 15.6667 25.7221 16.5593 26.3288 17.166C26.9528 17.7727 27.8021 18.076 28.8768 18.076C30.4021 18.076 31.6328 17.478 32.5688 16.282L33.9988 17.66C33.4961 18.4747 32.7768 19.116 31.8408 19.584C30.9048 20.0347 29.8735 20.26 28.7468 20.26C26.8055 20.26 25.2888 19.6707 24.1968 18.492C23.1221 17.296 22.5848 15.6407 22.5848 13.526C22.5848 11.4113 23.1308 9.756 24.2228 8.56C25.3148 7.34667 26.8141 6.74 28.7208 6.74C30.5235 6.74 31.9275 7.338 32.9328 8.534C33.9555 9.71267 34.4668 11.368 34.4668 13.5V14.488ZM32.0228 12.46C32.0228 11.3333 31.7195 10.4493 31.1128 9.808C30.5061 9.16667 29.6741 8.846 28.6168 8.846C27.6288 8.846 26.8401 9.17533 26.2508 9.834C25.6615 10.4927 25.3061 11.4287 25.1848 12.642H32.0228V12.46ZM40.7164 20.26C39.867 20.26 39.1044 20.0867 38.4284 19.74C37.7697 19.3933 37.2497 18.9167 36.8684 18.31C36.5044 17.686 36.3224 16.984 36.3224 16.204C36.3224 14.8867 36.825 13.8813 37.8304 13.188C38.8357 12.4773 40.2657 12.122 42.1204 12.122H44.5644V11.472C44.5644 10.6053 44.3304 9.938 43.8624 9.47C43.3944 9.002 42.7097 8.768 41.8084 8.768C41.0284 8.768 40.3004 8.924 39.6244 9.236C38.9484 9.53067 38.3937 9.964 37.9604 10.536L36.7384 9.002C37.3624 8.274 38.1164 7.71933 39.0004 7.338C39.9017 6.93933 40.8724 6.74 41.9124 6.74C43.5764 6.74 44.8677 7.14733 45.7864 7.962C46.705 8.75933 47.1644 9.89467 47.1644 11.368V17.4C47.1644 18.18 47.2684 19.0467 47.4764 20H45.2144C45.041 19.584 44.9197 19.0033 44.8504 18.258H44.7984C43.8104 19.5927 42.4497 20.26 40.7164 20.26ZM41.2104 18.258C42.1464 18.258 42.935 18.0067 43.5764 17.504C44.235 16.984 44.5644 16.36 44.5644 15.632V13.916H42.0164C40.9937 13.916 40.205 14.1153 39.6504 14.514C39.113 14.8953 38.8444 15.4587 38.8444 16.204C38.8444 16.8453 39.0524 17.348 39.4684 17.712C39.9017 18.076 40.4824 18.258 41.2104 18.258ZM55.3428 20.26C54.1294 20.26 53.1761 19.896 52.4828 19.168C51.8068 18.4227 51.4688 17.4 51.4688 16.1V8.976H49.1288V7H51.4688V3.568L53.9388 2.84H54.0428V7H57.7608V8.976H54.0428V15.788C54.0428 16.6373 54.2074 17.2613 54.5368 17.66C54.8834 18.0587 55.4034 18.258 56.0968 18.258C56.7901 18.258 57.4054 18.154 57.9428 17.946L58.0988 19.792C57.4574 20.104 56.5388 20.26 55.3428 20.26ZM60.481 0.707999H63.055V8.872C63.4364 8.21333 64.0084 7.69333 64.771 7.312C65.5337 6.93067 66.3744 6.74 67.293 6.74C68.801 6.74 69.9797 7.24267 70.829 8.248C71.6784 9.25333 72.103 10.6487 72.103 12.434V20H69.529V12.512C69.529 11.2813 69.2864 10.3367 68.801 9.678C68.333 9.01933 67.6484 8.69 66.747 8.69C65.6724 8.69 64.7884 9.08 64.095 9.86C63.4017 10.64 63.055 11.654 63.055 12.902V20H60.481V0.707999ZM86.3652 14.488H77.1092C77.2479 15.6667 77.6206 16.5593 78.2272 17.166C78.8512 17.7727 79.7006 18.076 80.7752 18.076C82.3006 18.076 83.5312 17.478 84.4672 16.282L85.8972 17.66C85.3946 18.4747 84.6752 19.116 83.7392 19.584C82.8032 20.0347 81.7719 20.26 80.6452 20.26C78.7039 20.26 77.1872 19.6707 76.0952 18.492C75.0206 17.296 74.4832 15.6407 74.4832 13.526C74.4832 11.4113 75.0292 9.756 76.1212 8.56C77.2132 7.34667 78.7126 6.74 80.6192 6.74C82.4219 6.74 83.8259 7.338 84.8312 8.534C85.8539 9.71267 86.3652 11.368 86.3652 13.5V14.488ZM83.9212 12.46C83.9212 11.3333 83.6179 10.4493 83.0112 9.808C82.4046 9.16667 81.5726 8.846 80.5152 8.846C79.5272 8.846 78.7386 9.17533 78.1492 9.834C77.5599 10.4927 77.2046 11.4287 77.0832 12.642H83.9212V12.46ZM88.8968 10.172C88.8968 8.69867 88.8708 7.64133 88.8188 7H91.2368C91.3061 7.69333 91.3408 8.456 91.3408 9.288V9.548H91.4188C91.7655 8.664 92.3115 7.97933 93.0568 7.494C93.8195 6.99133 94.7121 6.74 95.7348 6.74C96.0121 6.74 96.2635 6.766 96.4888 6.818V8.898C96.3675 8.86333 96.0988 8.846 95.6828 8.846C94.9201 8.846 94.2095 9.07133 93.5508 9.522C92.9095 9.95533 92.3981 10.5533 92.0168 11.316C91.6528 12.0613 91.4708 12.8847 91.4708 13.786V20H88.8968V10.172Z" fill="white"/>
</svg>
