<svg width="26" height="30" viewBox="0 0 26 30" fill="none" xmlns="http://www.w3.org/2000/svg">
<path d="M25 13C25 16.4027 23.2847 19.4837 21.1511 22C18.8567 24.7058 16.0788 26.7586 14.43 27.8558C13.5576 28.4362 12.4424 28.4362 11.57 27.8558C9.92128 26.7586 7.14322 24.7058 4.84886 22C2.71529 19.4837 1 16.4027 1 13C1 6.37258 6.37258 1 13 1C19.6275 1 25 6.37258 25 13Z" stroke="white" stroke-width="2"/>
<path d="M17.5 13C17.5 15.4854 15.4853 17.5 13 17.5C10.5146 17.5 8.5 15.4854 8.5 13C8.5 10.5147 10.5146 8.50001 13 8.50001C15.4853 8.50001 17.5 10.5147 17.5 13Z" stroke="white" stroke-width="2"/>
</svg>
