<svg width="40" height="30" viewBox="0 0 40 30" fill="none" xmlns="http://www.w3.org/2000/svg">
<path d="M19.6794 0.625406C19.7924 0.512144 19.9266 0.422283 20.0744 0.36097C20.2221 0.299657 20.3805 0.268097 20.5405 0.268097C20.7005 0.268097 20.8589 0.299657 21.0066 0.36097C21.1544 0.422283 21.2886 0.512144 21.4016 0.625406L25.0502 4.27405C25.1633 4.38713 25.253 4.52138 25.3142 4.66912C25.3754 4.81687 25.4069 4.97522 25.4069 5.13514C25.4069 5.29505 25.3754 5.4534 25.3142 5.60115C25.253 5.74889 25.1633 5.88314 25.0502 5.99622C24.9372 6.1093 24.8029 6.19899 24.6552 6.26019C24.5074 6.32139 24.3491 6.35289 24.1892 6.35289C24.0292 6.35289 23.8709 6.32139 23.7231 6.26019C23.5754 6.19899 23.4412 6.1093 23.3281 5.99622L21.7567 4.42243V8.78378C21.7567 9.10635 21.6286 9.41569 21.4005 9.64378C21.1724 9.87186 20.8631 10 20.5405 10C20.2179 10 19.9086 9.87186 19.6805 9.64378C19.4524 9.41569 19.3243 9.10635 19.3243 8.78378V4.42243L17.7529 5.99622C17.6399 6.1093 17.5056 6.19899 17.3579 6.26019C17.2101 6.32139 17.0518 6.35289 16.8919 6.35289C16.7319 6.35289 16.5736 6.32139 16.4258 6.26019C16.2781 6.19899 16.1439 6.1093 16.0308 5.99622C15.9177 5.88314 15.828 5.74889 15.7668 5.60115C15.7056 5.4534 15.6741 5.29505 15.6741 5.13514C15.6741 4.97522 15.7056 4.81687 15.7668 4.66912C15.828 4.52138 15.9177 4.38713 16.0308 4.27405L19.6794 0.625406ZM6.78023 8.40189C7.00831 8.17389 7.3176 8.0458 7.6401 8.0458C7.9626 8.0458 8.27189 8.17389 8.49996 8.40189L11.9394 11.8414C12.161 12.0707 12.2836 12.378 12.2808 12.6968C12.278 13.0157 12.1501 13.3208 11.9246 13.5463C11.6991 13.7718 11.3941 13.8997 11.0752 13.9024C10.7563 13.9052 10.4491 13.7826 10.2197 13.5611L6.78023 10.1216C6.55223 9.89355 6.42414 9.58425 6.42414 9.26176C6.42414 8.93926 6.55223 8.62997 6.78023 8.40189ZM34.3008 8.40189C34.5288 8.62997 34.6569 8.93926 34.6569 9.26176C34.6569 9.58425 34.5288 9.89355 34.3008 10.1216L30.8613 13.5611C30.7491 13.6772 30.6149 13.7699 30.4665 13.8336C30.3182 13.8974 30.1586 13.9309 29.9971 13.9323C29.8356 13.9337 29.6754 13.903 29.526 13.8418C29.3765 13.7807 29.2407 13.6904 29.1265 13.5762C29.0123 13.462 28.922 13.3262 28.8609 13.1767C28.7997 13.0272 28.7689 12.8671 28.7703 12.7056C28.7717 12.5441 28.8053 12.3845 28.869 12.2361C28.9328 12.0877 29.0254 11.9535 29.1416 11.8414L32.581 8.40189C32.8091 8.17389 33.1184 8.0458 33.4409 8.0458C33.7634 8.0458 34.0727 8.17389 34.3008 8.40189ZM20.5405 14.8649C21.8216 14.8645 23.0803 15.2014 24.1899 15.8417C25.2996 16.482 26.2211 17.4031 26.8618 18.5125C27.5026 19.6219 27.84 20.8805 27.84 22.1616C27.8401 23.4427 27.503 24.7013 26.8624 25.8108H14.2162C13.5755 24.7011 13.2383 23.4423 13.2385 22.161C13.2387 20.8797 13.5763 19.621 14.2173 18.5115C14.8584 17.402 15.7802 16.4809 16.8902 15.8408C18.0002 15.2006 19.2592 14.864 20.5405 14.8649ZM29.5648 25.8108C30.1612 24.3339 30.3859 22.7333 30.2192 21.1493C30.0525 19.5653 29.4995 18.0464 28.6088 16.7261C27.718 15.4057 26.5167 14.3242 25.1104 13.5765C23.7041 12.8289 22.1357 12.4379 20.5429 12.4379C18.9502 12.4379 17.3818 12.8289 15.9755 13.5765C14.5691 14.3242 13.3679 15.4057 12.4771 16.7261C11.5863 18.0464 11.0333 19.5653 10.8666 21.1493C10.6999 22.7333 10.9247 24.3339 11.521 25.8108H2.29483C1.97227 25.8108 1.66292 25.9389 1.43483 26.167C1.20675 26.3951 1.07861 26.7045 1.07861 27.027C1.07861 27.3496 1.20675 27.6589 1.43483 27.887C1.66292 28.1151 1.97227 28.2432 2.29483 28.2432H38.7813C39.1039 28.2432 39.4132 28.1151 39.6413 27.887C39.8694 27.6589 39.9975 27.3496 39.9975 27.027C39.9975 26.7045 39.8694 26.3951 39.6413 26.167C39.4132 25.9389 39.1039 25.8108 38.7813 25.8108H29.5624H29.5648ZM1.08105 22.1622C1.08105 21.8396 1.20918 21.5303 1.43727 21.3022C1.66535 21.0741 1.9747 20.9459 2.29726 20.9459H7.16213C7.48469 20.9459 7.79404 21.0741 8.02212 21.3022C8.25021 21.5303 8.37834 21.8396 8.37834 22.1622C8.37834 22.4847 8.25021 22.7941 8.02212 23.0222C7.79404 23.2502 7.48469 23.3784 7.16213 23.3784H2.29726C1.9747 23.3784 1.66535 23.2502 1.43727 23.0222C1.20918 22.7941 1.08105 22.4847 1.08105 22.1622ZM32.7027 22.1622C32.7027 21.8396 32.8308 21.5303 33.0589 21.3022C33.287 21.0741 33.5963 20.9459 33.9189 20.9459H38.7837C39.1063 20.9459 39.4157 21.0741 39.6437 21.3022C39.8718 21.5303 40 21.8396 40 22.1622C40 22.4847 39.8718 22.7941 39.6437 23.0222C39.4157 23.2502 39.1063 23.3784 38.7837 23.3784H33.9189C33.5963 23.3784 33.287 23.2502 33.0589 23.0222C32.8308 22.7941 32.7027 22.4847 32.7027 22.1622Z" fill="white"/>
</svg>
