<svg width="26" height="26" viewBox="0 0 26 26" fill="none" xmlns="http://www.w3.org/2000/svg">
<path d="M13 26C10.4288 26 7.91543 25.2376 5.77759 23.8091C3.63975 22.3806 1.97351 20.3503 0.989572 17.9749C0.00563282 15.5994 -0.251811 12.9856 0.249797 10.4638C0.751405 7.94208 1.98953 5.6257 3.80762 3.80762C5.6257 1.98953 7.94208 0.751405 10.4638 0.249797C12.9856 -0.251811 15.5994 0.00563282 17.9749 0.989572C20.3503 1.97351 22.3806 3.63975 23.8091 5.77759C25.2376 7.91543 26 10.4288 26 13C26 13.2299 25.9087 13.4503 25.7462 13.6128C25.5836 13.7754 25.3632 13.8667 25.1333 13.8667C24.9035 13.8667 24.683 13.7754 24.5205 13.6128C24.358 13.4503 24.2667 13.2299 24.2667 13C24.2667 10.7717 23.6059 8.59337 22.3679 6.74058C21.1299 4.88779 19.3703 3.44371 17.3116 2.59096C15.2529 1.73822 12.9875 1.5151 10.802 1.94982C8.61647 2.38455 6.60894 3.4576 5.03327 5.03327C3.4576 6.60894 2.38455 8.61647 1.94982 10.802C1.5151 12.9875 1.73822 15.2529 2.59096 17.3116C3.44371 19.3703 4.88779 21.1299 6.74058 22.3679C8.59337 23.6059 10.7717 24.2667 13 24.2667C13.2299 24.2667 13.4503 24.358 13.6128 24.5205C13.7754 24.683 13.8667 24.9035 13.8667 25.1333C13.8667 25.3632 13.7754 25.5836 13.6128 25.7462C13.4503 25.9087 13.2299 26 13 26Z" fill="white"/>
<path d="M22.9667 7.80001H3.03333C2.80348 7.80001 2.58304 7.7087 2.42051 7.54617C2.25798 7.38363 2.16667 7.16319 2.16667 6.93334C2.16667 6.70349 2.25798 6.48305 2.42051 6.32051C2.58304 6.15798 2.80348 6.06667 3.03333 6.06667H22.9667C23.1965 6.06667 23.417 6.15798 23.5795 6.32051C23.742 6.48305 23.8333 6.70349 23.8333 6.93334C23.8333 7.16319 23.742 7.38363 23.5795 7.54617C23.417 7.7087 23.1965 7.80001 22.9667 7.80001ZM13 13.8667H0.866666C0.636812 13.8667 0.416372 13.7754 0.253841 13.6128C0.0913092 13.4503 0 13.2299 0 13C0 12.7702 0.0913092 12.5497 0.253841 12.3872C0.416372 12.2246 0.636812 12.1333 0.866666 12.1333H13C13.2299 12.1333 13.4503 12.2246 13.6128 12.3872C13.7754 12.5497 13.8667 12.7702 13.8667 13C13.8667 13.2299 13.7754 13.4503 13.6128 13.6128C13.4503 13.7754 13.2299 13.8667 13 13.8667ZM10.4 19.9333H3.03333C2.80348 19.9333 2.58304 19.842 2.42051 19.6795C2.25798 19.517 2.16667 19.2965 2.16667 19.0667C2.16667 18.8368 2.25798 18.6164 2.42051 18.4538C2.58304 18.2913 2.80348 18.2 3.03333 18.2H10.4C10.6299 18.2 10.8503 18.2913 11.0128 18.4538C11.1754 18.6164 11.2667 18.8368 11.2667 19.0667C11.2667 19.2965 11.1754 19.517 11.0128 19.6795C10.8503 19.842 10.6299 19.9333 10.4 19.9333Z" fill="white"/>
<path d="M13 26C9.35523 26 6.5 20.2895 6.5 13C6.5 5.71047 9.35523 7.62939e-06 13 7.62939e-06C16.1326 7.62939e-06 18.7508 4.24061 19.3661 10.3133C19.3775 10.4266 19.3664 10.541 19.3336 10.6499C19.3008 10.7589 19.2468 10.8604 19.1748 10.9485C19.0293 11.1265 18.8191 11.2394 18.5904 11.2623C18.4772 11.2737 18.3628 11.2627 18.2538 11.2299C18.1449 11.197 18.0434 11.1431 17.9553 11.071C17.7773 10.9256 17.6644 10.7154 17.6414 10.4867C17.1357 5.49684 15.1398 1.73334 13 1.73334C10.7467 1.73334 8.23333 6.36047 8.23333 13C8.23333 19.6395 10.7467 24.2667 13 24.2667C13.2299 24.2667 13.4503 24.358 13.6128 24.5205C13.7754 24.683 13.8667 24.9035 13.8667 25.1333C13.8667 25.3632 13.7754 25.5836 13.6128 25.7462C13.4503 25.9087 13.2299 26 13 26Z" fill="white"/>
<path d="M19.0666 26C17.6954 26 16.3549 25.5934 15.2147 24.8315C14.0745 24.0697 13.1858 22.9868 12.6611 21.7199C12.1363 20.453 11.999 19.059 12.2665 17.714C12.5341 16.3691 13.1944 15.1337 14.164 14.1641C15.1337 13.1944 16.3691 12.5341 17.714 12.2666C19.0589 11.999 20.453 12.1363 21.7199 12.6611C22.9868 13.1859 24.0696 14.0745 24.8315 15.2147C25.5933 16.3549 26 17.6954 26 19.0667C25.9978 20.9048 25.2666 22.6671 23.9668 23.9669C22.6671 25.2666 20.9048 25.9978 19.0666 26ZM19.0666 13.8667C18.0382 13.8667 17.0328 14.1716 16.1777 14.743C15.3225 15.3144 14.656 16.1265 14.2625 17.0767C13.8689 18.0269 13.7659 19.0724 13.9666 20.0811C14.1672 21.0898 14.6624 22.0164 15.3897 22.7436C16.1169 23.4709 17.0435 23.9661 18.0522 24.1667C19.0609 24.3674 20.1064 24.2644 21.0566 23.8708C22.0068 23.4773 22.8189 22.8108 23.3903 21.9556C23.9617 21.1005 24.2666 20.0951 24.2666 19.0667C24.2651 17.688 23.7168 16.3662 22.7419 15.3914C21.7671 14.4165 20.4453 13.8682 19.0666 13.8667Z" fill="white"/>
<path d="M17.7668 21.2333C17.5954 21.2333 17.4278 21.1825 17.2854 21.0872C17.1429 20.992 17.0318 20.8566 16.9662 20.6983C16.9006 20.54 16.8835 20.3657 16.9169 20.1976C16.9503 20.0295 17.0328 19.8751 17.154 19.7539L18.2001 18.7079V15.6C18.2001 15.3701 18.2914 15.1497 18.4539 14.9872C18.6165 14.8246 18.8369 14.7333 19.0667 14.7333C19.2966 14.7333 19.517 14.8246 19.6796 14.9872C19.8421 15.1497 19.9334 15.3701 19.9334 15.6V19.0667C19.9334 19.2965 19.842 19.5169 19.6795 19.6794L18.3795 20.9794C18.2991 21.06 18.2036 21.124 18.0985 21.1676C17.9933 21.2112 17.8806 21.2335 17.7668 21.2333Z" fill="white"/>
</svg>
